<?xml version="1.0" encoding="UTF-8"?>
<svg version="1.1" xmlns="http://www.w3.org/2000/svg" width="73" height="89">
<path d="M0 0 C0.495 0.99 0.495 0.99 1 2 C1.84046875 1.67515625 2.6809375 1.3503125 3.546875 1.015625 C12.41606186 -1.59295937 23.1789947 -0.68550606 32 2 C33.74292177 3.74292177 33.11980303 6.00623495 33.12442017 8.32824707 C33.11902725 9.472995 33.11902725 9.472995 33.11352539 10.64086914 C33.11367142 11.44080795 33.11381744 12.24074677 33.1139679 13.06492615 C33.11326855 15.72169665 33.10547518 18.37839793 33.09765625 21.03515625 C33.09579215 22.87218691 33.09436821 24.70921806 33.09336853 26.54624939 C33.08954275 31.39109662 33.07971196 36.23591408 33.06866455 41.08074951 C33.05845172 46.02062578 33.05387119 50.96050685 33.04882812 55.90039062 C33.03808974 65.60027353 33.0210126 75.30013429 33 85 C32.31292969 85.06058594 31.62585938 85.12117188 30.91796875 85.18359375 C30.01691406 85.26738281 29.11585937 85.35117188 28.1875 85.4375 C27.29417969 85.51871094 26.40085937 85.59992188 25.48046875 85.68359375 C22.87256441 85.93489767 22.87256441 85.93489767 20 87 C14.8341522 88.70073156 10.12703185 89.30756365 4.72265625 89.30078125 C3.56738686 89.30720894 3.56738686 89.30720894 2.38877869 89.31376648 C0.76936826 89.3194769 -0.8500678 89.32003447 -2.46948242 89.31567383 C-4.92737157 89.31251302 -7.38405598 89.33601593 -9.84179688 89.36132812 C-11.42447767 89.36360162 -13.00716166 89.36430438 -14.58984375 89.36328125 C-15.31405014 89.372491 -16.03825653 89.38170074 -16.78440857 89.39118958 C-21.37549268 89.35019331 -24.9499135 88.51964775 -29.16725159 86.69230652 C-31.28533518 85.81167468 -31.28533518 85.81167468 -34.875 85.5 C-35.90625 85.335 -36.9375 85.17 -38 85 C-40.42669283 81.35996076 -40.26911387 78.7027485 -40.22705078 74.49926758 C-40.22734283 73.73805099 -40.22763489 72.97683441 -40.22793579 72.19255066 C-40.22654243 69.67642824 -40.21098107 67.16060194 -40.1953125 64.64453125 C-40.19158239 62.90004132 -40.18873541 61.15554929 -40.18673706 59.41105652 C-40.17910045 54.81936866 -40.15945171 50.22780731 -40.1373291 45.63616943 C-40.11687129 40.95082307 -40.10773548 36.26545627 -40.09765625 31.58007812 C-40.07620585 22.38666317 -40.04206955 13.1933421 -40 4 C-35.01460753 3.34973491 -30.27457717 2.88461534 -25.234375 2.9375 C-24.01492187 2.94523438 -22.79546875 2.95296875 -21.5390625 2.9609375 C-20.28867187 2.97382812 -19.03828125 2.98671875 -17.75 3 C-15.24483493 3.02551085 -12.73961914 3.04654303 -10.234375 3.0625 C-9.13319336 3.07410156 -8.03201172 3.08570313 -6.89746094 3.09765625 C-4.40118126 3.01352144 -2.3735886 2.73122074 0 2 C0 1.34 0 0.68 0 0 Z " fill="#329B42" transform="translate(40,0)"/>
<path d="M0 0 C4.47204473 4.06549521 4.47204473 4.06549521 5.75 7.5 C5.93679564 11.48768087 5.22454718 14.59404629 3.375 18.125 C-8.82608417 29.16407615 -23.90897333 29.45989928 -39.50537109 28.74267578 C-47.96636818 27.99456769 -55.76395818 24.8439719 -62.015625 19.02734375 C-64.32145134 16.1742485 -65.20164601 13.8203452 -65.75 10.1875 C-65.06734558 5.15292367 -62.96512897 2.82537213 -59.25 -0.5 C-43.43900084 -12.11624428 -16.00419637 -10.48091862 0 0 Z " fill="#F5F9F8" transform="translate(66.25,27.5)"/>
<path d="M0 0 C0.495 0.99 0.495 0.99 1 2 C1.84046875 1.67515625 2.6809375 1.3503125 3.546875 1.015625 C12.41606186 -1.59295937 23.1789947 -0.68550606 32 2 C34.11869928 4.11869928 33.21311268 8.81072723 33.23828125 11.7421875 C33.246353 12.62149933 33.25442474 13.50081116 33.26274109 14.4067688 C33.27659768 16.2713218 33.28731276 18.13590033 33.29516602 20.00048828 C33.31238712 22.85628154 33.35625904 25.71091986 33.40039062 28.56640625 C33.41051633 30.37499146 33.41903282 32.18358654 33.42578125 33.9921875 C33.44328934 34.84851776 33.46079742 35.70484802 33.47883606 36.58712769 C33.45701414 42.53478261 33.45701414 42.53478261 30.97338867 45.06298828 C30.32217041 45.37220215 29.67095215 45.68141602 29 46 C29.350625 45.154375 29.70125 44.30875 30.0625 43.4375 C31.16473753 39.39596239 31.10104217 37.03715464 30 33 C26.4863677 28.42163064 22.21208643 26.17402536 17 24 C16.32839844 23.69835937 15.65679687 23.39671875 14.96484375 23.0859375 C2.94336979 18.54873216 -14.14709762 19.51556858 -26 24 C-30.93175527 26.56278986 -34.95000232 29.28303662 -38 34 C-38.72045367 37.15118325 -38.72045367 37.15118325 -39 40 C-39.33 40 -39.66 40 -40 40 C-40 28.12 -40 16.24 -40 4 C-34.80077826 3.35009728 -30.36735257 2.88364189 -25.234375 2.9375 C-24.01492187 2.94523438 -22.79546875 2.95296875 -21.5390625 2.9609375 C-20.28867187 2.97382812 -19.03828125 2.98671875 -17.75 3 C-15.24483493 3.02551085 -12.73961914 3.04654303 -10.234375 3.0625 C-9.13319336 3.07410156 -8.03201172 3.08570313 -6.89746094 3.09765625 C-4.40118126 3.01352144 -2.3735886 2.73122074 0 2 C0 1.34 0 0.68 0 0 Z " fill="#309C48" transform="translate(40,0)"/>
<path d="M0 0 C0.495 0.99 0.495 0.99 1 2 C1.84046875 1.67515625 2.6809375 1.3503125 3.546875 1.015625 C12.41606186 -1.59295937 23.1789947 -0.68550606 32 2 C33 3 33 3 33.09765625 5.50390625 C33.08605469 6.51324219 33.07445313 7.52257812 33.0625 8.5625 C33.05347656 9.57441406 33.04445313 10.58632812 33.03515625 11.62890625 C33.02355469 12.41136719 33.01195313 13.19382812 33 14 C32.28457031 13.855625 31.56914063 13.71125 30.83203125 13.5625 C20.53544745 11.64437831 10.60567204 11.50067057 0.21875 12.78125 C-2.19985881 13.01970439 -4.57122144 13.03420815 -7 13 C-7 13.66 -7 14.32 -7 15 C-12.17857045 17.10144888 -16.69550834 17.30345004 -22.1875 17.25 C-22.99380859 17.25773437 -23.80011719 17.26546875 -24.63085938 17.2734375 C-25.79391602 17.26957031 -25.79391602 17.26957031 -26.98046875 17.265625 C-28.03077271 17.26224121 -28.03077271 17.26224121 -29.10229492 17.25878906 C-31 17 -31 17 -34 15 C-28.72 15 -23.44 15 -18 15 C-18.33 14.34 -18.66 13.68 -19 13 C-22.27555608 12.52998967 -22.27555608 12.52998967 -26.0625 12.375 C-27.99802734 12.26285156 -27.99802734 12.26285156 -29.97265625 12.1484375 C-31.47119141 12.07496094 -31.47119141 12.07496094 -33 12 C-30.91049487 8.86574231 -30.39916443 8.22685074 -27 7 C-24.3915208 6.70585235 -21.86466689 6.49362383 -19.25 6.375 C-18.20392578 6.31699219 -18.20392578 6.31699219 -17.13671875 6.2578125 C-15.42489182 6.16401376 -13.71248318 6.08093826 -12 6 C-12 5.34 -12 4.68 -12 4 C-8.04 3.34 -4.08 2.68 0 2 C0 1.34 0 0.68 0 0 Z " fill="#70BA80" transform="translate(40,0)"/>
<path d="M0 0 C6.93 0 13.86 0 21 0 C20.01 0.495 20.01 0.495 19 1 C21.475 5.455 21.475 5.455 24 10 C27.44802976 6.82418312 29.41996314 4.39309313 31 0 C34.06345144 -0.10822792 37.1230601 -0.18741479 40.1875 -0.25 C41.05181641 -0.28351562 41.91613281 -0.31703125 42.80664062 -0.3515625 C47.01485978 -0.41605628 49.39465773 -0.34906043 53.109375 1.79296875 C55 4 55 4 55.0625 7.5625 C53.87260214 11.41216954 53.46267114 12.14279997 50 14 C47.3270555 14.21326685 44.9073788 14.28545631 42.25 14.1875 C41.55261719 14.17396484 40.85523438 14.16042969 40.13671875 14.14648438 C38.42414459 14.1112945 36.71197059 14.05749155 35 14 C35 13.34 35 12.68 35 12 C35.78246094 11.93941406 36.56492188 11.87882812 37.37109375 11.81640625 C38.38300781 11.73261719 39.39492188 11.64882813 40.4375 11.5625 C41.44683594 11.48128906 42.45617188 11.40007813 43.49609375 11.31640625 C45.93640779 11.26788532 45.93640779 11.26788532 47 10 C47.07148199 8.64756083 47.08399454 7.29165633 47.0625 5.9375 C47.041875 4.638125 47.02125 3.33875 47 2 C43.70673387 1.32914949 42.17003393 1.08330198 39 2 C35.20040619 5.2795872 32.14936125 9.10540902 29 13 C27.63166555 14.56834055 26.25760244 16.13172311 24.875 17.6875 C23.91552521 18.79067493 22.95669592 19.89441431 22 21 C18.18602483 19.72867494 17.16326771 18.013538 14.6875 14.875 C13.8934375 13.88371094 13.099375 12.89242187 12.28125 11.87109375 C11.5284375 10.92363281 10.775625 9.97617187 10 9 C6.88422807 5.12578359 4.55425569 2.27712784 0 0 Z " fill="#135593" transform="translate(9,28)"/>
<path d="M0 0 C0.73412109 -0.00386719 1.46824219 -0.00773438 2.22460938 -0.01171875 C6.81283703 -0.00357638 11.16118339 0.37161045 15.6875 1.125 C15.6875 1.785 15.6875 2.445 15.6875 3.125 C14.0375 3.455 12.3875 3.785 10.6875 4.125 C11.73624998 6.74687494 12.33681313 7.91871361 14.8125 9.375 C15.43125 9.6225 16.05 9.87 16.6875 10.125 C16.6875 10.785 16.6875 11.445 16.6875 12.125 C11.43290513 12.99845508 6.38450951 13.27820853 1.0625 13.25 C-0.04351563 13.25580078 -0.04351563 13.25580078 -1.171875 13.26171875 C-5.09925914 13.25468043 -8.42570003 12.90235999 -12.3125 12.125 C-12.3125 8.495 -12.3125 4.865 -12.3125 1.125 C-8.11240322 0.0749758 -4.28757297 -0.0222346 0 0 Z " fill="#4FAA63" transform="translate(12.3125,2.875)"/>
<path d="M0 0 C0.33 0.66 0.66 1.32 1 2 C1.84046875 1.67515625 2.6809375 1.3503125 3.546875 1.015625 C12.63396484 -1.65704848 22.94272189 -0.38685917 32 2 C32.495 3.98 32.495 3.98 33 6 C30.69 6.33 28.38 6.66 26 7 C26 7.33 26 7.66 26 8 C25.36908447 7.99476318 24.73816895 7.98952637 24.08813477 7.98413086 C21.24626653 7.96342174 18.40441412 7.95035934 15.5625 7.9375 C14.56927734 7.92912109 13.57605469 7.92074219 12.55273438 7.91210938 C11.60849609 7.90888672 10.66425781 7.90566406 9.69140625 7.90234375 C8.81685791 7.89710693 7.94230957 7.89187012 7.04125977 7.88647461 C5.00559794 7.77215191 5.00559794 7.77215191 4 9 C-3.30102041 11.47959184 -3.30102041 11.47959184 -7 10 C-6.01 9.34 -5.02 8.68 -4 8 C-5.32 7.34 -6.64 6.68 -8 6 C-6.35 5.67 -4.7 5.34 -3 5 C-2.67 4.01 -2.34 3.02 -2 2 C-1.34 2 -0.68 2 0 2 C0 1.34 0 0.68 0 0 Z " fill="#58AF6B" transform="translate(40,0)"/>
<path d="M0 0 C1.423125 -0.061875 2.84625 -0.12375 4.3125 -0.1875 C5.51326172 -0.23970703 5.51326172 -0.23970703 6.73828125 -0.29296875 C9 0 9 0 10.76953125 1.3203125 C12.65996393 3.90090314 12.39508249 5.90518718 12 9 C8.77208445 11.1519437 7.71599191 11.20086443 4 11 C4 12.98 4 14.96 4 17 C2.68 17 1.36 17 0 17 C0 11.39 0 5.78 0 0 Z " fill="#D7D81B" transform="translate(7,60)"/>
<path d="M0 0 C0 2.64 0 5.28 0 8 C-5.94 7.01 -5.94 7.01 -12 6 C-12 5.34 -12 4.68 -12 4 C-18.6 4.33 -25.2 4.66 -32 5 C-32 3.68 -32 2.36 -32 1 C-28.45584748 -0.18138417 -25.60738132 -0.09698812 -21.875 -0.0625 C-20.61429688 -0.05347656 -19.35359375 -0.04445313 -18.0546875 -0.03515625 C-17.04664063 -0.02355469 -16.03859375 -0.01195312 -15 0 C-13.86403023 0 -12.73121986 -0.13431712 -11.6015625 -0.25390625 C-10.61929688 -0.35574219 -9.63703125 -0.45757812 -8.625 -0.5625 C-7.15933594 -0.71912109 -7.15933594 -0.71912109 -5.6640625 -0.87890625 C-3 -1 -3 -1 0 0 Z " fill="#62B373" transform="translate(73,6)"/>
<path d="M0 0 C3.3 0 6.6 0 10 0 C10 0.99 10 1.98 10 3 C8.02 3 6.04 3 4 3 C4 3.99 4 4.98 4 6 C5.98 6 7.96 6 10 6 C10 6.99 10 7.98 10 9 C8.02 9 6.04 9 4 9 C4 10.32 4 11.64 4 13 C6.31 13 8.62 13 11 13 C11 13.99 11 14.98 11 16 C7.37 16 3.74 16 0 16 C0 10.72 0 5.44 0 0 Z " fill="#ECE116" transform="translate(37,61)"/>
<path d="M0 0 C3.54574275 0.43417258 6.85804704 0.95690714 10.28125 1.99609375 C18.88005808 4.31741064 28.24268444 4.60848653 37 3 C37 3.66 37 4.32 37 5 C36.34 5 35.68 5 35 5 C35 5.66 35 6.32 35 7 C10.01734161 7.82555811 10.01734161 7.82555811 0 3 C0 2.01 0 1.02 0 0 Z " fill="#B2D9BA" transform="translate(12,49)"/>
<path d="M0 0 C5.34965035 -0.35664336 5.34965035 -0.35664336 7.9375 1.0625 C9.68741799 4.25352692 8.91362414 6.58913653 8 10 C5.48247147 12.72992547 4.07983227 12.9936304 0.328125 13.29296875 C-1.03156035 13.27316751 -2.3910934 13.23759202 -3.75 13.1875 C-4.44738281 13.17396484 -5.14476562 13.16042969 -5.86328125 13.14648438 C-7.57585541 13.1112945 -9.28802941 13.05749155 -11 13 C-11 12.34 -11 11.68 -11 11 C-10.21753906 10.93941406 -9.43507812 10.87882812 -8.62890625 10.81640625 C-7.61699219 10.73261719 -6.60507812 10.64882813 -5.5625 10.5625 C-4.55316406 10.48128906 -3.54382812 10.40007813 -2.50390625 10.31640625 C-0.06359221 10.26788532 -0.06359221 10.26788532 1 9 C1.14636054 5.63370749 1.07193479 3.21580438 0 0 Z " fill="#24609B" transform="translate(55,29)"/>
<path d="M0 0 C0.33 0.66 0.66 1.32 1 2 C2.66289062 1.94779297 2.66289062 1.94779297 4.359375 1.89453125 C5.82290148 1.86638651 7.28644439 1.83908708 8.75 1.8125 C9.47960938 1.78736328 10.20921875 1.76222656 10.9609375 1.73632812 C14.2676931 1.691236 16.58932057 1.77361615 19.515625 3.38671875 C21 5 21 5 21 7 C15.63510405 7.90483637 10.49682543 8.12303662 5.0625 8.0625 C4.28326172 8.05798828 3.50402344 8.05347656 2.70117188 8.04882812 C0.80074732 8.03716908 -1.09963706 8.01923877 -3 8 C-3 7.34 -3 6.68 -3 6 C-3.66 5.67 -4.32 5.34 -5 5 C-5 3.68 -5 2.36 -5 1 C-3.35 0.67 -1.7 0.34 0 0 Z " fill="#44A559" transform="translate(8,8)"/>
<path d="M0 0 C0.33 0.66 0.66 1.32 1 2 C1.84046875 1.67515625 2.6809375 1.3503125 3.546875 1.015625 C12.63396484 -1.65704848 22.94272189 -0.38685917 32 2 C32.495 3.98 32.495 3.98 33 6 C32.06929687 5.67644531 31.13859375 5.35289062 30.1796875 5.01953125 C25.19745221 3.60301337 20.27130381 3.67004307 15.125 3.6875 C14.18269531 3.67138672 13.24039063 3.65527344 12.26953125 3.63867188 C6.63085289 3.63477237 2.10174803 4.30635998 -3.12939453 6.45239258 C-5 7 -5 7 -8 6 C-6.35 5.67 -4.7 5.34 -3 5 C-2.67 4.01 -2.34 3.02 -2 2 C-1.34 2 -0.68 2 0 2 C0 1.34 0 0.68 0 0 Z " fill="#2B9642" transform="translate(40,0)"/>
<path d="M0 0 C3.96 0 7.92 0 12 0 C12 0.66 12 1.32 12 2 C10.68 2 9.36 2 8 2 C8 6.62 8 11.24 8 16 C6.68 16 5.36 16 4 16 C4 11.38 4 6.76 4 2 C2.68 2 1.36 2 0 2 C0 1.34 0 0.68 0 0 Z " fill="#F0E215" transform="translate(52,61)"/>
<path d="M0 0 C1.5065732 0.00399622 3.01314702 0.01877492 4.51953125 0.04296875 C5.63424805 0.04393555 5.63424805 0.04393555 6.77148438 0.04492188 C11.38390168 0.08130378 15.78186658 0.47713023 20.33203125 1.23046875 C20.33203125 1.89046875 20.33203125 2.55046875 20.33203125 3.23046875 C15.93908744 4.38018451 11.81219345 4.18610803 7.33203125 3.85546875 C6.63335937 3.81164062 5.9346875 3.7678125 5.21484375 3.72265625 C1.51507435 3.47135116 -2.05318451 3.06356356 -5.66796875 2.23046875 C-3.66796875 0.23046875 -3.66796875 0.23046875 0 0 Z " fill="#267F39" transform="translate(7.66796875,2.76953125)"/>
<path d="M0 0 C1.65 0 3.3 0 5 0 C4.01 0.495 4.01 0.495 3 1 C3 2.98 3 4.96 3 7 C4.32 7.33 5.64 7.66 7 8 C5.68 8.33 4.36 8.66 3 9 C3 11.31 3 13.62 3 16 C2.01 16 1.02 16 0 16 C0 10.72 0 5.44 0 0 Z " fill="#FAE613" transform="translate(8,61)"/>
<path d="M0 0 C4.62 0 9.24 0 14 0 C14 1.32 14 2.64 14 4 C12.68 4 11.36 4 10 4 C10 7.3 10 10.6 10 14 C11.32 14 12.64 14 14 14 C14 14.99 14 15.98 14 17 C12.35 17 10.7 17 9 17 C9 12.38 9 7.76 9 3 C10.32 3 11.64 3 13 3 C13 2.34 13 1.68 13 1 C9.04 1 5.08 1 1 1 C1 1.66 1 2.32 1 3 C2.98 3.495 2.98 3.495 5 4 C3.35 4 1.7 4 0 4 C0 2.68 0 1.36 0 0 Z " fill="#9BC229" transform="translate(51,60)"/>
<path d="M0 0 C0 0.99 0 1.98 0 3 C-5.08086796 3.84681133 -9.84828377 4.09038099 -15 4 C-15 3.34 -15 2.68 -15 2 C-17.64 2 -20.28 2 -23 2 C-23 1.67 -23 1.34 -23 1 C-15.31068715 -0.06059488 -7.75493514 -0.09928082 0 0 Z " fill="#57AE6A" transform="translate(29,12)"/>
<path d="M0 0 C0.99 0 1.98 0 3 0 C3 5.28 3 10.56 3 16 C2.01 16 1.02 16 0 16 C0 10.72 0 5.44 0 0 Z " fill="#FDE712" transform="translate(25,61)"/>
<path d="M0 0 C0.33 0.66 0.66 1.32 1 2 C-0.65 2.33 -2.3 2.66 -4 3 C-4 3.66 -4 4.32 -4 5 C-10.53162622 6.10914408 -16.43507888 5.78441153 -23 5 C-23 4.67 -23 4.34 -23 4 C-18.05 3.67 -13.1 3.34 -8 3 C-8 2.34 -8 1.68 -8 1 C-5.36 0.67 -2.72 0.34 0 0 Z " fill="#69B77A" transform="translate(36,3)"/>
<path d="M0 0 C1.06992187 0.00644531 2.13984375 0.01289063 3.2421875 0.01953125 C4.35335937 0.03628906 5.46453125 0.05304687 6.609375 0.0703125 C7.73601563 0.07933594 8.86265625 0.08835937 10.0234375 0.09765625 C12.80229865 0.12120592 15.5807289 0.1540957 18.359375 0.1953125 C18.359375 0.5253125 18.359375 0.8553125 18.359375 1.1953125 C14.63126728 1.56126997 10.90180834 1.91099806 7.171875 2.2578125 C5.58922852 2.4134668 5.58922852 2.4134668 3.97460938 2.57226562 C2.44223633 2.71245117 2.44223633 2.71245117 0.87890625 2.85546875 C-0.05848389 2.94449463 -0.99587402 3.03352051 -1.96166992 3.12524414 C-4.68862109 3.19656784 -6.99682109 2.8347734 -9.640625 2.1953125 C-6.3223173 0.20570477 -3.84102801 -0.040862 0 0 Z " fill="#7ABF89" transform="translate(42.640625,9.8046875)"/>
<path d="M0 0 C2.64 0.33 5.28 0.66 8 1 C7.2575 2.175625 7.2575 2.175625 6.5 3.375 C4.83462035 5.78552327 4.83462035 5.78552327 5 8 C3.35 8 1.7 8 0 8 C0 5.36 0 2.72 0 0 Z " fill="#6DB87D" transform="translate(0,7)"/>
<path d="M0 0 C0 0.66 0 1.32 0 2 C-0.66 2 -1.32 2 -2 2 C-2 2.66 -2 3.32 -2 4 C-3.258125 4.04125 -4.51625 4.0825 -5.8125 4.125 C-6.52019531 4.14820313 -7.22789063 4.17140625 -7.95703125 4.1953125 C-10 4 -10 4 -13 2 C-11.20873548 1.66451233 -9.41697413 1.33167645 -7.625 1 C-6.62726562 0.814375 -5.62953125 0.62875 -4.6015625 0.4375 C-2 0 -2 0 0 0 Z " fill="#A7D5B1" transform="translate(49,52)"/>
<path d="M0 0 C2.97 0.495 2.97 0.495 6 1 C6 1.99 6 2.98 6 4 C-1.42857143 6.42857143 -1.42857143 6.42857143 -5 5 C-4.01 4.34 -3.02 3.68 -2 3 C-1.34 2.01 -0.68 1.02 0 0 Z " fill="#47A75C" transform="translate(38,5)"/>
<path d="M0 0 C0.33 0 0.66 0 1 0 C1 3.3 1 6.6 1 10 C2.32 10 3.64 10 5 10 C5 10.99 5 11.98 5 13 C3.35 13 1.7 13 0 13 C0 8.71 0 4.42 0 0 Z " fill="#7AB631" transform="translate(60,64)"/>
<path d="M0 0 C-1.98953324 1.98953324 -3.40434522 2.97746933 -6 4 C-6.99 3.67 -7.98 3.34 -9 3 C-9 2.34 -9 1.68 -9 1 C-5.57367167 -0.61798838 -3.61944899 -1.34053666 0 0 Z " fill="#A6D4B0" transform="translate(60,50)"/>
<path d="M0 0 C1.65 0 3.3 0 5 0 C5 1.32 5 2.64 5 4 C3.35 4 1.7 4 0 4 C0 2.68 0 1.36 0 0 Z " fill="#98C12A" transform="translate(30,73)"/>
<path d="M0 0 C1.32 0 2.64 0 4 0 C4 1.65 4 3.3 4 5 C2.68 5 1.36 5 0 5 C0 3.35 0 1.7 0 0 Z " fill="#4AA53C" transform="translate(11,63)"/>
<path d="M0 0 C0.99 0.33 1.98 0.66 3 1 C2.01 1 1.02 1 0 1 C0 0.67 0 0.34 0 0 Z " fill="#000000" transform="translate(4,1)"/>
<path d="M0 0 C3 1 3 1 3 1 Z " fill="#000000" transform="translate(12,88)"/>
<path d="M0 0 C0.33 0.66 0.66 1.32 1 2 C0.34 1.67 -0.32 1.34 -1 1 C-0.67 0.67 -0.34 0.34 0 0 Z " fill="#000000" transform="translate(5,87)"/>
<path d="M0 0 C2 1 2 1 2 1 Z " fill="#000000" transform="translate(71,88)"/>
<path d="M0 0 C2 1 2 1 2 1 Z " fill="#000000" transform="translate(66,88)"/>
<path d="M0 0 C2 1 2 1 2 1 Z " fill="#000000" transform="translate(61,88)"/>
<path d="M0 0 C2 1 2 1 2 1 Z " fill="#000000" transform="translate(56,88)"/>
<path d="M0 0 C2 1 2 1 2 1 Z " fill="#000000" transform="translate(8,88)"/>
<path d="" fill="#000000" transform="translate(0,0)"/>
<path d="" fill="#000000" transform="translate(0,0)"/>
<path d="" fill="#000000" transform="translate(0,0)"/>
<path d="" fill="#000000" transform="translate(0,0)"/>
<path d="" fill="#000000" transform="translate(0,0)"/>
<path d="" fill="#000000" transform="translate(0,0)"/>
<path d="" fill="#000000" transform="translate(0,0)"/>
<path d="" fill="#000000" transform="translate(0,0)"/>
<path d="" fill="#000000" transform="translate(0,0)"/>
<path d="" fill="#000000" transform="translate(0,0)"/>
<path d="" fill="#000000" transform="translate(0,0)"/>
<path d="" fill="#000000" transform="translate(0,0)"/>
<path d="" fill="#000000" transform="translate(0,0)"/>
<path d="" fill="#000000" transform="translate(0,0)"/>
<path d="" fill="#000000" transform="translate(0,0)"/>
<path d="" fill="#000000" transform="translate(0,0)"/>
<path d="" fill="#000000" transform="translate(0,0)"/>
<path d="" fill="#000000" transform="translate(0,0)"/>
<path d="" fill="#000000" transform="translate(0,0)"/>
<path d="" fill="#000000" transform="translate(0,0)"/>
</svg>
